<?xml version="1.0" encoding="UTF-8" standalone="no"?>
<!-- Created with Inkscape (http://www.inkscape.org/) -->

<svg
   width="87.037811mm"
   height="87.782166mm"
   viewBox="0 0 87.037811 87.782166"
   version="1.1"
   id="svg1"
   xml:space="preserve"
   inkscape:version="1.4 (86a8ad7, 2024-10-11)"
   sodipodi:docname="logo_round.svg"
   inkscape:export-filename="logo_round.png"
   inkscape:export-xdpi="289.35263"
   inkscape:export-ydpi="289.35263"
   xmlns:inkscape="http://www.inkscape.org/namespaces/inkscape"
   xmlns:sodipodi="http://sodipodi.sourceforge.net/DTD/sodipodi-0.dtd"
   xmlns="http://www.w3.org/2000/svg"
   xmlns:svg="http://www.w3.org/2000/svg"
   xmlns:rdf="http://www.w3.org/1999/02/22-rdf-syntax-ns#"
   xmlns:cc="http://creativecommons.org/ns#"
   xmlns:dc="http://purl.org/dc/elements/1.1/"><title
     id="title1">ETS2LA Rounded Logo</title><sodipodi:namedview
     id="namedview1"
     pagecolor="#505050"
     bordercolor="#eeeeee"
     borderopacity="1"
     inkscape:showpageshadow="0"
     inkscape:pageopacity="0"
     inkscape:pagecheckerboard="0"
     inkscape:deskcolor="#505050"
     inkscape:document-units="mm"
     inkscape:zoom="1.4142136"
     inkscape:cx="305.11657"
     inkscape:cy="286.02469"
     inkscape:window-width="3440"
     inkscape:window-height="1417"
     inkscape:window-x="-8"
     inkscape:window-y="-8"
     inkscape:window-maximized="1"
     inkscape:current-layer="layer1" /><defs
     id="defs1"><inkscape:path-effect
       effect="fillet_chamfer"
       id="path-effect33"
       is_visible="true"
       lpeversion="1"
       nodesatellites_param="F,0,0,1,0,1,0,1 @ F,0,0,1,0,1,0,1 @ F,0,0,1,0,1,0,1 @ F,0,0,1,0,1,0,1"
       radius="0"
       unit="px"
       method="auto"
       mode="F"
       chamfer_steps="1"
       flexible="false"
       use_knot_distance="true"
       apply_no_radius="true"
       apply_with_radius="true"
       only_selected="false"
       hide_knots="false" /><inkscape:path-effect
       effect="fillet_chamfer"
       id="path-effect32"
       is_visible="true"
       lpeversion="1"
       nodesatellites_param="F,0,0,1,0,1,0,1 @ F,0,0,1,0,1,0,1 @ F,0,0,1,0,0.6,0,1"
       radius="0"
       unit="px"
       method="auto"
       mode="F"
       chamfer_steps="1"
       flexible="false"
       use_knot_distance="true"
       apply_no_radius="true"
       apply_with_radius="true"
       only_selected="false"
       hide_knots="false" /><inkscape:path-effect
       effect="fillet_chamfer"
       id="path-effect31"
       is_visible="true"
       lpeversion="1"
       nodesatellites_param="F,0,0,1,0,1,0,1 @ F,0,0,1,0,1,0,1 @ F,0,0,1,0,1,0,1 @ F,0,0,1,0,1,0,1 @ F,0,0,1,0,1,0,1 @ F,0,0,1,0,1,0,1 @ F,0,0,1,0,1,0,1 @ F,0,0,1,0,1,0,1"
       radius="0"
       unit="px"
       method="auto"
       mode="F"
       chamfer_steps="1"
       flexible="false"
       use_knot_distance="true"
       apply_no_radius="true"
       apply_with_radius="true"
       only_selected="false"
       hide_knots="false" /><inkscape:path-effect
       effect="fillet_chamfer"
       id="path-effect30"
       is_visible="true"
       lpeversion="1"
       nodesatellites_param="F,0,0,1,0,0.4,0,1 @ F,0,0,1,0,0.6,0,1 @ F,0,0,1,0,0.4,0,1"
       radius="0"
       unit="px"
       method="auto"
       mode="F"
       chamfer_steps="1"
       flexible="false"
       use_knot_distance="true"
       apply_no_radius="true"
       apply_with_radius="true"
       only_selected="false"
       hide_knots="false" /><inkscape:path-effect
       effect="fillet_chamfer"
       id="path-effect29"
       is_visible="true"
       lpeversion="1"
       nodesatellites_param="F,0,0,1,0,0.6,0,1 @ F,0,0,1,0,0.6,0,1 @ F,0,0,1,0,0.6,0,1 @ F,0,0,1,0,0.6,0,1"
       radius="0"
       unit="px"
       method="auto"
       mode="F"
       chamfer_steps="1"
       flexible="false"
       use_knot_distance="true"
       apply_no_radius="true"
       apply_with_radius="true"
       only_selected="false"
       hide_knots="false" /><inkscape:path-effect
       effect="fillet_chamfer"
       id="path-effect28"
       is_visible="true"
       lpeversion="1"
       nodesatellites_param="F,0,0,1,0,0.8,0,1 @ F,0,0,1,0,0.8,0,1 @ F,0,0,1,0,0.8,0,1 @ F,0,0,1,0,0.8,0,1"
       radius="0"
       unit="px"
       method="auto"
       mode="F"
       chamfer_steps="1"
       flexible="false"
       use_knot_distance="true"
       apply_no_radius="true"
       apply_with_radius="true"
       only_selected="false"
       hide_knots="false" /><inkscape:path-effect
       effect="fillet_chamfer"
       id="path-effect26"
       is_visible="true"
       lpeversion="1"
       nodesatellites_param="F,0,0,1,0,1,0,1 @ F,0,0,1,0,0.6,0,1 @ F,0,0,1,0,1,0,1"
       radius="0"
       unit="px"
       method="auto"
       mode="F"
       chamfer_steps="1"
       flexible="false"
       use_knot_distance="true"
       apply_no_radius="true"
       apply_with_radius="true"
       only_selected="false"
       hide_knots="false" /><inkscape:path-effect
       effect="fillet_chamfer"
       id="path-effect25"
       is_visible="true"
       lpeversion="1"
       nodesatellites_param="F,0,0,1,0,1,0,1 @ F,0,0,1,0,1,0,1 @ F,0,0,1,0,1,0,1 @ F,0,0,1,0,1,0,1 @ F,0,0,1,0,1,0,1 @ F,0,0,1,0,1,0,1 @ F,0,0,1,0,1,0,1 @ F,0,0,1,0,1,0,1"
       radius="0"
       unit="px"
       method="auto"
       mode="F"
       chamfer_steps="1"
       flexible="false"
       use_knot_distance="true"
       apply_no_radius="true"
       apply_with_radius="true"
       only_selected="false"
       hide_knots="false" /></defs><g
     inkscape:label="Layer 1"
     inkscape:groupmode="layer"
     id="layer1"
     transform="translate(-74.926661,-110.40803)"><path
       style="fill:#ffffff;fill-opacity:1;stroke-width:0.264999;stroke-dasharray:none;paint-order:stroke fill markers"
       d="m 148.96789,132.61892 12.43262,9.15107 a 1.3849239,1.3849239 72.186653 0 1 0.49604,1.54375 l -16.0664,49.39376 a 1.3776149,1.3776149 143.99385 0 1 -1.30932,0.95149 l -28.95625,0.0154 a 0.5809479,0.5809479 59.815105 0 1 -0.50514,-0.86844 l 2.4664,-4.33094 a 1.7202691,1.7202691 149.83037 0 1 1.49486,-0.86897 h 21.01875 a 1.3777462,1.3777462 144.02699 0 0 1.30991,-0.95076 l 13.39483,-41.09327 a 1.4019499,1.4019499 72.55401 0 0 -0.48816,-1.55333 l -8.25959,-6.23627 a 1.1322983,1.1322983 78.503678 0 1 -0.29878,-1.469 l 1.96558,-3.41089 a 0.89407585,0.89407585 168.15419 0 1 1.30465,-0.27364 z"
       id="path18"
       inkscape:path-effect="#path-effect25"
       inkscape:original-d="m 148.16253,132.02613 14.04334,10.33665 -16.68504,51.29568 -30.95625,0.0165 3.45612,-6.06888 h 23.01875 l 14.01465,-42.99479 -9.85573,-7.44141 z" /><path
       style="fill:#ffffff;fill-opacity:1;stroke-width:0.264999;stroke-dasharray:none;paint-order:stroke fill markers"
       d="m 82.646147,166.93533 -7.723854,-23.7735 a 1.3782804,1.3782804 107.96381 0 1 0.499265,-1.53989 l 42.154682,-30.71013 a 1.3613046,1.3613046 0.22687234 0 1 1.61183,0.006 l 15.06988,11.16231 a 0.80565231,0.80565231 87.670748 0 1 0.051,1.25372 l -2.99275,2.61866 a 1.2557134,1.2557134 177.34643 0 1 -1.56284,0.0724 l -10.54205,-7.62525 a 1.3744081,1.3744081 179.83974 0 0 -1.61723,0.005 l -34.989513,25.60786 a 1.3816882,1.3816882 107.9054 0 0 -0.498119,1.54171 l 5.566939,17.14364 a 1.4864376,1.4864376 105.94085 0 1 -0.455753,1.59561 l -3.497881,2.94847 a 0.67286124,0.67286124 15.936435 0 1 -1.073596,-0.30656 z"
       id="path19"
       inkscape:path-effect="#path-effect31"
       inkscape:original-d="m 82.955142,167.88639 -8.341844,-25.67562 43.771202,-31.88779 16.67702,12.35273 -4.49791,3.93568 -12.16257,-8.79739 -36.60345,26.78906 6.184635,19.04586 z"
       transform="rotate(-1.0369821,104.71946,139.02553)" /><path
       style="fill:#f9671e;fill-opacity:1;stroke-width:0.264999;stroke-dasharray:none;paint-order:stroke fill markers"
       d="m 81.269648,174.01518 66.732042,-57.9076 a 0.03076778,0.03076778 46.114231 0 1 0.0426,0.0443 l -59.902822,63.83759 a 1.0376775,1.0376775 177.11939 0 1 -1.438297,0.0724 l -5.434781,-4.7344 a 0.86944496,0.86944496 90.05493 0 1 0.0013,-1.31225 z"
       id="path20"
       inkscape:path-effect="#path-effect26"
       inkscape:original-d="M 80.514369,174.67058 148.45486,115.71434 87.457192,180.71868 Z"
       sodipodi:nodetypes="cccc"
       transform="rotate(-1.099627,87.188675,221.50011)" /><path
       style="fill:#f9671e;fill-opacity:1;stroke-width:0.264999;stroke-dasharray:none;paint-order:stroke fill markers"
       d="m 101.89979,193.1558 5.70851,4.83897 a 0.82391291,0.82391291 169.77275 0 0 1.25156,-0.22581 l 43.87373,-78.31557 a 0.03109875,0.03109875 32.225356 0 0 -0.0525,-0.0331 l -50.96775,72.2717 a 1.0931224,1.0931224 82.739805 0 0 0.18649,1.46384 z"
       id="path21"
       inkscape:path-effect="#path-effect32"
       inkscape:original-d="m 101.13698,192.50918 7.23413,6.13221 44.65573,-79.71146 z"
       sodipodi:nodetypes="cccc" /><path
       style="fill:#ffffff;fill-opacity:1;stroke-width:0.264999;stroke-dasharray:none;paint-order:stroke fill markers"
       d="m 111.09081,168.1426 11.17945,-14.19495 a 0.83243294,0.83243294 84.36095 0 0 -0.11335,-1.14804 l -0.94655,-0.8084 a 0.80806489,0.80806489 175.7865 0 0 -1.13395,0.0835 l -11.88126,13.63229 a 0.78601125,0.78601125 85.568507 0 0 0.0867,1.118 l 1.70176,1.43114 a 0.77470705,0.77470705 174.14296 0 0 1.10725,-0.11358 z"
       id="path23"
       inkscape:path-effect="#path-effect28"
       inkscape:original-d="m 110.59583,168.77109 12.16941,-15.45193 -2.16321,-1.8475 -12.9325,14.83847 z"
       transform="rotate(-1.5841749,84.654207,145.53371)" /><path
       style="fill:#ffffff;fill-opacity:1;stroke-width:0.264999;stroke-dasharray:none;paint-order:stroke fill markers"
       d="m 126.57918,148.23298 11.6869,-14.52173 a 0.59679226,0.59679226 83.673097 0 0 -0.0933,-0.84109 l -0.38568,-0.30701 a 0.62342768,0.62342768 174.61656 0 0 -0.86081,0.0811 l -12.13269,14.09879 a 0.59094342,0.59094342 85.277899 0 0 0.0693,0.8392 l 0.87935,0.73374 a 0.58945849,0.58945849 174.33443 0 0 0.83687,-0.083 z"
       id="path24"
       sodipodi:nodetypes="ccccc"
       inkscape:path-effect="#path-effect29"
       inkscape:original-d="m 126.203,148.70041 12.43926,-15.45658 -1.32456,-1.05435 -12.91543,15.00837 z"
       transform="rotate(-1.3405262,100.67458,158.60555)" /><path
       style="fill:#ffffff;fill-opacity:1;stroke-width:0.264999;stroke-dasharray:none;paint-order:stroke fill markers"
       d="m 142.11778,128.38999 8.49465,-10.88351 a 0.03063261,0.03063261 40.894927 0 0 -0.0462,-0.0401 l -9.59855,10.00313 a 0.36596527,0.36596527 86.273394 0 0 0.0351,0.53888 l 0.55691,0.44662 a 0.3947502,0.3947502 173.35073 0 0 0.55815,-0.0651 z"
       id="path25"
       sodipodi:nodetypes="cccc"
       inkscape:path-effect="#path-effect30"
       inkscape:original-d="m 141.87167,128.70531 9.10993,-11.67182 -10.29092,10.72468 z"
       transform="rotate(-2.417783,144.33521,152.52791)" /><path
       style="fill:#ffffff;fill-opacity:1;stroke-width:0.264999;stroke-dasharray:none;paint-order:stroke fill markers"
       d="m 97.917776,188.07088 h 2.835074 a 0.97484688,0.97484688 134.27028 0 0 0.97453,-0.99968 l -0.41678,-16.35871 a 1.0258021,1.0258021 44.270278 0 0 -1.02547,-0.99968 h -1.905479 a 1.0254757,1.0254757 135.72061 0 0 -1.025151,0.99968 l -0.411573,16.35871 a 0.97515721,0.97515721 45.720607 0 0 0.974849,0.99968 z"
       id="path32"
       sodipodi:nodetypes="ccccc"
       inkscape:path-effect="#path-effect33"
       inkscape:original-d="m 96.917776,188.07088 h 4.835074 l -0.46772,-18.35807 h -3.905479 z"
       transform="rotate(39.41836,99.807245,179.86275)" /></g><metadata
     id="metadata1"><rdf:RDF><cc:Work
         rdf:about=""><dc:title>ETS2LA Rounded Logo</dc:title><dc:creator><cc:Agent><dc:title>Tumppi066</dc:title></cc:Agent></dc:creator><dc:source>https://ets2la.com</dc:source><dc:description>Created with inkscape.</dc:description><dc:date>28/04/2025</dc:date><cc:license
           rdf:resource="http://creativecommons.org/licenses/by/4.0/" /></cc:Work><cc:License
         rdf:about="http://creativecommons.org/licenses/by/4.0/"><cc:permits
           rdf:resource="http://creativecommons.org/ns#Reproduction" /><cc:permits
           rdf:resource="http://creativecommons.org/ns#Distribution" /><cc:requires
           rdf:resource="http://creativecommons.org/ns#Notice" /><cc:requires
           rdf:resource="http://creativecommons.org/ns#Attribution" /><cc:permits
           rdf:resource="http://creativecommons.org/ns#DerivativeWorks" /></cc:License></rdf:RDF></metadata></svg>
